#!OML:ASF F:\VICON\USERDATA\INSTALL\SteveWalk\SteveWalk.ASF
:FULLY-SPECIFIED
:DEGREES
31
root -1.05659 16.0721 -39.3604 18.9768 -4.87199 -1.31982
lowerback -17.1043 3.0003 0.815434
upperback -4.91639 3.77544 0.568095
thorax 4.32207 1.86473 0.909778
lowerneck -1.59496 -0.234044 1.43118
upperneck 5.51906 -0.144717 -4.10654
head 2.00512 -0.138739 -1.54986
rclavicle -2.01829e-014 -1.03368e-014
rhumerus -11.429 12.4947 -82.7189
rradius 52.0141
rwrist -18.1889
rhand -18.0702 -34.8143
rfingers 7.12502
rthumb 8.20255 -64.6351
lclavicle -2.01829e-014 -1.03368e-014
lhumerus -57.364 15.4694 70.9511
lradius 16.1348
lwrist -24.2194
lhand -8.9692 -14.5635
lfingers 7.12502
lthumb 16.9761 14.7147
rfemur -1.90635 -6.50793 20.753
rtibia 19.6835
rfoot -23.8837 17.6033
rtoes -9.70883
lfemur -49.9187 7.10716 -22.6486
ltibia 9.30913
lfoot -8.14399 -0.373151
ltoes -16.6238
32
root -1.0312 16.0319 -39.0887 18.3881 -5.24457 -0.977012
lowerback -16.8932 3.10263 0.433988
upperback -4.72511 3.9884 0.354634
thorax 4.40182 1.96774 0.937597
lowerneck -1.58389 -0.29084 1.40065
upperneck 5.36462 -0.237262 -3.8589
head 1.94855 -0.178437 -1.46466
rclavicle -4.1869e-015 -1.98785e-015
rhumerus -11.5949 12.6647 -82.5149
rradius 52.6314
rwrist -18.1677
rhand -18.3511 -34.9987
rfingers 7.12502
rthumb 7.93149 -64.8299
lclavicle -4.1869e-015 -1.98785e-015
lhumerus -57.9198 16.1779 69.6455
lradius 15.7756
lwrist -25.0263
lhand -9.14656 -14.7994
lfingers 7.12502
lthumb 16.8054 14.4934
rfemur -0.33732 -6.09737 19.8582
rtibia 19.7472
rfoot -23.1467 18.0149
rtoes -11.3763
lfemur -49.3483 7.04007 -23.1369
ltibia 9.86827
lfoot -8.58266 -0.648039
ltoes -17.048
33
root -1.00848 15.9866 -38.8281 18.1968 -5.3385 -0.695951
lowerback -17.2565 3.1236 0.157879
upperback -4.43261 4.07278 0.129091
thorax 4.90333 2.00268 0.904809
lowerneck -1.64589 -0.324833 1.51523
upperneck 4.93373 -0.306701 -3.7128
head 1.81753 -0.205092 -1.43501
rclavicle 2.4289e-015 -1.17283e-014
rhumerus -11.5799 12.5419 -82.3759
rradius 53.2135
rwrist -17.9789
rhand -18.6761 -35.326
rfingers 7.12502
rthumb 7.6178 -65.1688
lclavicle 2.4289e-015 -1.17283e-014
lhumerus -57.9577 17.5061 67.8397
lradius 15.0645
lwrist -26.6299
lhand -9.23031 -15.037
lfingers 7.12502
lthumb 16.7247 14.2625
rfemur 0.587623 -5.58515 19.2214
rtibia 20.1871
rfoot -22.3424 18.0917
rtoes -11.2049
lfemur -49.1698 6.66363 -23.5703
ltibia 10.8154
lfoot -8.94287 -0.756542
ltoes -17.233
34
root -0.992094 15.9385 -38.571 18.2076 -5.21516 -0.740064
lowerback -17.1153 3.15683 -0.0273937
upperback -4.5777 4.15374 0.0571953
thorax 4.66542 2.04423 0.935817
lowerneck -1.85736 -0.45581 1.55236
upperneck 5.08909 -0.490615 -3.50744
head 1.89954 -0.294497 -1.38265
rclavicle -2.22142e-014 -1.59028e-015
rhumerus -12.3218 11.9861 -82.3328
rradius 53.7771
rwrist -17.6507
rhand -18.6747 -34.5534
rfingers 7.12502
rthumb 7.61916 -64.3962
lclavicle -2.22142e-014 -1.59028e-015
lhumerus -58.5268 18.6927 65.7955
lradius 14.4099
lwrist -28.6408
lhand -9.32385 -15.3584
lfingers 7.12502
lthumb 16.6347 13.9487
rfemur 1.20257 -4.8535 19.1231
rtibia 20.8258
rfoot -21.4691 17.8435
rtoes -11.0363
lfemur -49.3425 5.76186 -23.0748
ltibia 12.3842
lfoot -9.35163 -0.000339592
ltoes -16.8999
35
root -0.980327 15.8893 -38.3117 18.2 -5.05692 -0.64746
lowerback -17.078 3.11815 -0.414494
upperback -4.67598 4.17325 -0.013556
thorax 4.51884 2.05388 1.07614
lowerneck -2.24108 -0.56 1.42899
upperneck 5.45625 -0.633322 -3.22827
head 2.08311 -0.366715 -1.28212
rclavicle -1.46293e-015 -3.18055e-015
rhumerus -13.0806 11.6772 -82.2167
rradius 54.3965
rwrist -17.5219
rhand -18.4342 -33.9638
rfingers 7.12502
rthumb 7.85122 -63.798
lclavicle -1.46293e-015 -3.18055e-015
lhumerus -59.3484 20.0495 63.4231
lradius 13.8621
lwrist -31.0856
lhand -9.71016 -16.0916
lfingers 7.12502
lthumb 16.2627 13.2463
rfemur 1.75295 -4.22041 18.9245
rtibia 21.6454
rfoot -20.6842 17.5466
rtoes -13.5511
lfemur -49.7467 5.11316 -23.0326
ltibia 14.5873
lfoot -9.75183 0.603158
ltoes -17.4138
36
root -0.964404 15.8501 -38.0466 18.1873 -4.87268 -0.392811
lowerback -17.1434 2.97678 -0.893264
upperback -4.75199 4.07262 -0.0821022
thorax 4.44631 2.00332 1.25276
lowerneck -2.61313 -0.536959 1.22496
upperneck 5.83052 -0.601488 -2.97092
head 2.27345 -0.353273 -1.17057
rclavicle -5.2254e-014 -8.94531e-015
rhumerus -13.8823 12.0474 -81.9947
rradius 55.1972
rwrist -17.8471
rhand -18.4925 -34.3252
rfingers 7.12502
rthumb 7.79497 -64.1615
lclavicle -5.2254e-014 -8.94531e-015
lhumerus -60.4183 21.6101 60.7778
lradius 13.3038
lwrist -33.5743
lhand -10.1152 -16.7359
lfingers 7.12502
lthumb 15.8727 12.6335
rfemur 2.27001 -3.8201 18.5277
rtibia 22.4831
rfoot -19.6093 17.5687
rtoes -15.389
lfemur -50.208 4.56661 -23.3667
ltibia 17.1113
lfoot -9.02095 0.866124
ltoes -17.4105
37
root -0.9492 15.8323 -37.7832 18.3158 -4.49295 -0.350157
lowerback -17.557 2.80975 -1.17742
upperback -4.66452 3.90692 -0.0847144
thorax 4.74408 1.91536 1.40235
lowerneck -2.97775 -0.514602 1.04433
upperneck 5.85874 -0.585109 -2.60969
head 2.34884 -0.341761 -1.02619
rclavicle -3.15477e-014 -1.12313e-014
rhumerus -14.3429 12.4407 -81.7346
rradius 55.9047
rwrist -18.3056
rhand -18.7142 -34.6442
rfingers 7.12502
rthumb 7.58099 -64.4883
lclavicle -3.15477e-014 -1.12313e-014
lhumerus -61.1358 23.1895 58.412
lradius 12.8435
lwrist -35.5616
lhand -10.0691 -16.7786
lfingers 7.12502
lthumb 15.9171 12.5873
rfemur 2.57257 -3.38537 18.5107
rtibia 23.2747
rfoot -18.0398 17.5322
rtoes -16.4163
lfemur -50.8171 4.16915 -23.6907
ltibia 19.7149
lfoot -6.80635 0.628573
ltoes -20.5274
38
root -0.939862 15.8274 -37.5309 18.5921 -3.77494 -0.428399
lowerback -17.8216 2.60262 -1.37479
upperback -4.75077 3.67409 -0.108683
thorax 4.78825 1.79972 1.45048
lowerneck -3.12264 -0.592485 1.02548
upperneck 5.78665 -0.711258 -2.26136
head 2.34858 -0.395723 -0.915502
rclavicle 5.83782e-014 1.37161e-014
rhumerus -15.2067 12.2875 -81.7177
rradius 56.5338
rwrist -18.402
rhand -18.8721 -34.716
rfingers 7.12502
rthumb 7.42861 -64.5656
lclavicle 5.83782e-014 1.37161e-014
lhumerus -61.6635 24.2994 56.3877
lradius 12.4974
lwrist -37.1879
lhand -9.80043 -16.6481
lfingers 7.12502
lthumb 16.1758 12.697
rfemur 2.59268 -2.99108 18.8661
rtibia 24.1307
rfoot -15.5109 17.3401
rtoes -16.5491
lfemur -51.8764 3.02608 -23.0568
ltibia 22.2108
lfoot -3.97416 0.0136303
ltoes -20.4953
